<svg width="8" height="8" viewBox="0 0 8 8" fill="none" xmlns="http://www.w3.org/2000/svg">
<path fill-rule="evenodd" clip-rule="evenodd" d="M3.99993 0.333344C4.1268 0.333344 4.24267 0.405368 4.29883 0.519136L5.25135 2.44883L7.38147 2.76018C7.50699 2.77853 7.61122 2.86653 7.65034 2.9872C7.68947 3.10787 7.65671 3.24029 7.56584 3.3288L6.02477 4.8298L6.38846 6.95033C6.40991 7.07539 6.3585 7.20179 6.25584 7.27636C6.15318 7.35094 6.01708 7.36076 5.90478 7.3017L3.99993 6.29996L2.09508 7.3017C1.98277 7.36076 1.84668 7.35094 1.74402 7.27636C1.64136 7.20179 1.58994 7.07539 1.61139 6.95033L1.97509 4.8298L0.434017 3.3288C0.343145 3.24029 0.310387 3.10787 0.349513 2.9872C0.388639 2.86653 0.492866 2.77853 0.618386 2.76018L2.74851 2.44883L3.70103 0.519136C3.75718 0.405368 3.87306 0.333344 3.99993 0.333344ZM3.99993 1.41976L3.26883 2.90089C3.22032 2.99917 3.12659 3.06732 3.01814 3.08317L1.38273 3.32221L2.56584 4.47456C2.64446 4.55114 2.68035 4.66152 2.6618 4.76969L2.38265 6.39724L3.84478 5.62832C3.94191 5.57724 4.05795 5.57724 4.15508 5.62832L5.6172 6.39723L5.33806 4.76969C5.31951 4.66152 5.35539 4.55114 5.43402 4.47456L6.61712 3.32221L4.98172 3.08317C4.87327 3.06732 4.77954 2.99917 4.73103 2.90089L3.99993 1.41976Z" fill="#F2994A"/>
<path d="M2.33333 5L1 3L3 2.66667L4 1L5 2.66667L7 3.33333L5.66667 4.66667L6 7L4 6L2 7L2.33333 5Z" fill="#F2994A"/>
</svg>
